<?xml version="1.0" encoding="utf-8"?>
<!-- Generator: Adobe Illustrator 18.1.0, SVG Export Plug-In . SVG Version: 6.00 Build 0)  -->
<svg version="1.1" id="Layer_1" xmlns="http://www.w3.org/2000/svg" xmlns:xlink="http://www.w3.org/1999/xlink" x="0px" y="0px"
	 viewBox="0 0 20.2 11.2" enable-background="new 0 0 20.2 11.2" xml:space="preserve">
<path fill="#B3B3B3" d="M3.1,8.2c0,0-0.9-2,1.7-3.7l1.4,2.9L3.1,8.2z M6.8,2C6.8,2,6.7,2,6.7,2l-1-2L2.8,0.3L4,2.8
	c-6.1,2.5-3.4,8.5-3.4,8.5l9.3-2.7L7.3,3.3c4.6-1.3,8.4,1.4,8.4,1.4l-3.2,0.9l-0.9-1.7c-0.9-0.2-1.8-0.2-2.9,0L11,8.2l9.3-2.7
	C20.2,5.6,16.9,0.2,6.8,2"/>
</svg>
