<?xml version="1.0" encoding="utf-8"?>
<!-- Generator: Adobe Illustrator 18.1.0, SVG Export Plug-In . SVG Version: 6.00 Build 0)  -->
<svg version="1.1" id="Layer_1" xmlns="http://www.w3.org/2000/svg" xmlns:xlink="http://www.w3.org/1999/xlink" x="0px" y="0px"
	 viewBox="0 0 12.7 12.1" enable-background="new 0 0 12.7 12.1" xml:space="preserve">
<path fill="#B3B3B3" d="M0.2,12.1h2.7V3.9H0.2V12.1z M1.5,0C0.6,0,0,0.6,0,1.4c0,0.8,0.6,1.4,1.5,1.4h0c0.9,0,1.5-0.6,1.5-1.4
	C3,0.6,2.5,0,1.5,0 M12.7,7.4v4.7H9.9V7.7c0-1.1-0.4-1.8-1.4-1.8c-0.7,0-1.2,0.5-1.4,1C7.1,7,7.1,7.3,7.1,7.5v4.6H4.4
	c0,0,0-7.4,0-8.2h2.7v1.2c0,0,0,0,0,0h0v0c0.4-0.6,1-1.3,2.4-1.3C11.3,3.7,12.7,4.9,12.7,7.4"/>
</svg>
