<?xml version="1.0" encoding="utf-8"?>
<!-- Generator: Adobe Illustrator 18.1.0, SVG Export Plug-In . SVG Version: 6.00 Build 0)  -->
<svg version="1.1" id="Layer_1" xmlns="http://www.w3.org/2000/svg" xmlns:xlink="http://www.w3.org/1999/xlink" x="0px" y="0px"
	 viewBox="0 0 16.9 10.5" enable-background="new 0 0 16.9 10.5" xml:space="preserve">
<path fill="#B3B3B3" d="M14.8,5.7c0-0.5-0.2-0.9-0.5-1.2c-0.3-0.3-0.7-0.4-1.2-0.4c-0.5,0-0.9,0.1-1.2,0.4c-0.3,0.3-0.5,0.7-0.5,1.2
	H14.8z M16.8,5.5c0.1,0.3,0.1,0.8,0.1,1.5h-5.5c0,0.8,0.3,1.3,0.8,1.6c0.3,0.2,0.7,0.3,1.1,0.3c0.4,0,0.8-0.1,1.1-0.3
	c0.2-0.1,0.3-0.3,0.4-0.5h2c-0.1,0.4-0.3,0.9-0.7,1.4c-0.7,0.7-1.6,1.1-2.8,1.1c-1,0-1.9-0.3-2.6-0.9c-0.8-0.6-1.1-1.6-1.1-3
	c0-1.3,0.3-2.3,1-3c0.7-0.7,1.6-1,2.7-1c0.7,0,1.2,0.1,1.8,0.4c0.5,0.2,1,0.6,1.3,1.1C16.5,4.4,16.7,4.9,16.8,5.5 M6.4,7.2
	c0-0.5-0.2-0.9-0.7-1.1c-0.2-0.1-0.6-0.2-1-0.2H2.4v2.8h2.2c0.5,0,0.8-0.1,1.1-0.2C6.2,8.3,6.4,7.8,6.4,7.2 M2.4,4.1h2.2
	c0.5,0,0.8-0.1,1.1-0.3C6,3.7,6.2,3.4,6.2,3c0-0.5-0.2-0.8-0.6-1C5.3,1.9,4.9,1.8,4.4,1.8h-2V4.1z M8.2,5.8c0.3,0.4,0.4,0.9,0.4,1.5
	C8.6,8,8.5,8.5,8.1,9C7.9,9.3,7.7,9.6,7.4,9.8c-0.3,0.3-0.7,0.4-1.2,0.5c-0.5,0.1-0.9,0.1-1.5,0.1H0V0h5.1c1.3,0,2.2,0.4,2.7,1.1
	c0.3,0.4,0.5,1,0.5,1.6c0,0.6-0.2,1.2-0.5,1.5C7.6,4.5,7.3,4.7,7,4.9C7.5,5.1,7.9,5.4,8.2,5.8 M15.2,1.5H11V0.4h4.2V1.5z"/>
</svg>
